<svg xmlns="http://www.w3.org/2000/svg" viewBox="0 0 900 1200" role="img" aria-labelledby="title desc">
  <title id="title">ATS friendly CV template sample</title>
  <desc id="desc">A clean ATS-friendly CV template with one-column text structure, simple headings, and keyword-friendly sections.</desc>
  <defs>
    <filter id="paperShadow" x="-12%" y="-8%" width="124%" height="116%">
      <feDropShadow dx="0" dy="22" stdDeviation="20" flood-color="#0f172a" flood-opacity="0.14"/>
    </filter>
  </defs>
  <rect width="900" height="1200" fill="#e5e7eb"/>
  <rect x="82" y="58" width="736" height="1084" rx="12" fill="#ffffff" filter="url(#paperShadow)"/>
  <rect x="132" y="108" width="636" height="6" rx="3" fill="#84cc16"/>
  <rect x="132" y="148" width="330" height="34" rx="4" fill="#111827"/>
  <rect x="132" y="202" width="170" height="15" rx="7.5" fill="#64748b"/>
  <rect x="320" y="202" width="135" height="15" rx="7.5" fill="#64748b"/>
  <rect x="475" y="202" width="160" height="15" rx="7.5" fill="#64748b"/>
  <rect x="132" y="258" width="636" height="1.5" fill="#cbd5e1"/>
  <text x="132" y="320" fill="#111827" font-family="Arial, Helvetica, sans-serif" font-size="30" font-weight="800">ATS FRIENDLY CV TEMPLATE</text>
  <rect x="132" y="356" width="210" height="20" rx="4" fill="#365314"/>
  <rect x="132" y="397" width="592" height="13" rx="6.5" fill="#475569"/>
  <rect x="132" y="428" width="616" height="13" rx="6.5" fill="#94a3b8"/>
  <rect x="132" y="459" width="548" height="13" rx="6.5" fill="#94a3b8"/>
  <rect x="132" y="522" width="170" height="20" rx="4" fill="#365314"/>
  <rect x="132" y="574" width="250" height="17" rx="8.5" fill="#111827"/>
  <rect x="612" y="575" width="110" height="15" rx="7.5" fill="#64748b"/>
  <rect x="132" y="616" width="14" height="14" rx="7" fill="#84cc16"/>
  <rect x="164" y="616" width="560" height="13" rx="6.5" fill="#475569"/>
  <rect x="164" y="647" width="510" height="13" rx="6.5" fill="#94a3b8"/>
  <rect x="132" y="686" width="14" height="14" rx="7" fill="#84cc16"/>
  <rect x="164" y="686" width="582" height="13" rx="6.5" fill="#475569"/>
  <rect x="164" y="717" width="486" height="13" rx="6.5" fill="#94a3b8"/>
  <rect x="132" y="770" width="250" height="17" rx="8.5" fill="#111827"/>
  <rect x="612" y="771" width="110" height="15" rx="7.5" fill="#64748b"/>
  <rect x="132" y="812" width="14" height="14" rx="7" fill="#84cc16"/>
  <rect x="164" y="812" width="545" height="13" rx="6.5" fill="#475569"/>
  <rect x="164" y="843" width="592" height="13" rx="6.5" fill="#94a3b8"/>
  <rect x="132" y="882" width="14" height="14" rx="7" fill="#84cc16"/>
  <rect x="164" y="882" width="520" height="13" rx="6.5" fill="#475569"/>
  <rect x="164" y="913" width="470" height="13" rx="6.5" fill="#94a3b8"/>
  <rect x="132" y="976" width="112" height="20" rx="4" fill="#365314"/>
  <rect x="132" y="1022" width="122" height="30" rx="4" fill="#f1f5f9"/>
  <rect x="276" y="1022" width="150" height="30" rx="4" fill="#f1f5f9"/>
  <rect x="448" y="1022" width="116" height="30" rx="4" fill="#f1f5f9"/>
  <rect x="586" y="1022" width="138" height="30" rx="4" fill="#f1f5f9"/>
  <rect x="132" y="1088" width="636" height="1.5" fill="#cbd5e1"/>
  <text x="132" y="1122" fill="#64748b" font-family="Arial, Helvetica, sans-serif" font-size="18" font-weight="700">Single column - clear headings - no graphics - parser friendly</text>
</svg>
