<svg xmlns="http://www.w3.org/2000/svg" viewBox="0 0 900 1200" role="img" aria-labelledby="title desc">
  <title id="title">Graphic colorful CV sample</title>
  <desc id="desc">A colorful graphic CV layout with columns, decorative shapes, photo area, icons, and visual skill bars.</desc>
  <defs>
    <linearGradient id="header" x1="0" y1="0" x2="1" y2="1">
      <stop offset="0" stop-color="#7c3aed"/>
      <stop offset="0.48" stop-color="#2563eb"/>
      <stop offset="1" stop-color="#06b6d4"/>
    </linearGradient>
    <linearGradient id="sidebar" x1="0" y1="0" x2="0" y2="1">
      <stop offset="0" stop-color="#111827"/>
      <stop offset="1" stop-color="#312e81"/>
    </linearGradient>
    <filter id="paperShadow" x="-12%" y="-8%" width="124%" height="116%">
      <feDropShadow dx="0" dy="22" stdDeviation="20" flood-color="#0f172a" flood-opacity="0.18"/>
    </filter>
  </defs>
  <rect width="900" height="1200" fill="#e5e7eb"/>
  <rect x="82" y="58" width="736" height="1084" rx="22" fill="#ffffff" filter="url(#paperShadow)"/>
  <rect x="82" y="58" width="736" height="220" rx="22" fill="url(#header)"/>
  <path d="M82 240c96-54 182-38 262 0s168 58 270 0c74-42 140-44 204-10v48H82z" fill="#ffffff" opacity="0.22"/>
  <rect x="82" y="250" width="236" height="892" fill="url(#sidebar)"/>
  <circle cx="200" cy="178" r="74" fill="#ffffff" opacity="0.96"/>
  <circle cx="200" cy="162" r="28" fill="#94a3b8"/>
  <path d="M146 226c20-38 88-38 108 0" fill="#94a3b8"/>
  <rect x="350" y="124" width="310" height="28" rx="14" fill="#ffffff"/>
  <rect x="350" y="173" width="210" height="18" rx="9" fill="#e0f2fe"/>
  <rect x="350" y="214" width="275" height="14" rx="7" fill="#c7d2fe"/>
  <text x="350" y="260" fill="#ffffff" font-family="Arial, Helvetica, sans-serif" font-size="34" font-weight="800">GRAPHIC CV</text>
  <text x="132" y="342" fill="#ffffff" font-family="Arial, Helvetica, sans-serif" font-size="22" font-weight="800">CONTACT</text>
  <circle cx="142" cy="386" r="10" fill="#22d3ee"/>
  <rect x="164" y="378" width="100" height="13" rx="6.5" fill="#cbd5e1"/>
  <circle cx="142" cy="426" r="10" fill="#f59e0b"/>
  <rect x="164" y="418" width="118" height="13" rx="6.5" fill="#cbd5e1"/>
  <circle cx="142" cy="466" r="10" fill="#a78bfa"/>
  <rect x="164" y="458" width="92" height="13" rx="6.5" fill="#cbd5e1"/>
  <text x="132" y="555" fill="#ffffff" font-family="Arial, Helvetica, sans-serif" font-size="22" font-weight="800">SKILLS</text>
  <rect x="132" y="590" width="132" height="12" rx="6" fill="#475569"/>
  <rect x="132" y="590" width="92" height="12" rx="6" fill="#22d3ee"/>
  <rect x="132" y="630" width="132" height="12" rx="6" fill="#475569"/>
  <rect x="132" y="630" width="112" height="12" rx="6" fill="#f59e0b"/>
  <rect x="132" y="670" width="132" height="12" rx="6" fill="#475569"/>
  <rect x="132" y="670" width="76" height="12" rx="6" fill="#a78bfa"/>
  <text x="132" y="760" fill="#ffffff" font-family="Arial, Helvetica, sans-serif" font-size="22" font-weight="800">TOOLS</text>
  <rect x="132" y="796" width="58" height="34" rx="8" fill="#22d3ee"/>
  <rect x="205" y="796" width="58" height="34" rx="8" fill="#f59e0b"/>
  <rect x="132" y="846" width="58" height="34" rx="8" fill="#a78bfa"/>
  <rect x="205" y="846" width="58" height="34" rx="8" fill="#10b981"/>
  <rect x="360" y="340" width="365" height="78" rx="18" fill="#f5f3ff"/>
  <rect x="385" y="365" width="230" height="17" rx="8.5" fill="#7c3aed"/>
  <rect x="385" y="395" width="300" height="12" rx="6" fill="#c4b5fd"/>
  <text x="360" y="500" fill="#111827" font-family="Arial, Helvetica, sans-serif" font-size="24" font-weight="800">CREATIVE PROFILE</text>
  <rect x="360" y="530" width="145" height="112" rx="18" fill="#dbeafe"/>
  <rect x="535" y="530" width="190" height="112" rx="18" fill="#fef3c7"/>
  <circle cx="420" cy="586" r="30" fill="#2563eb"/>
  <path d="M390 616l72-72" stroke="#ffffff" stroke-width="10" stroke-linecap="round"/>
  <rect x="566" y="565" width="120" height="14" rx="7" fill="#d97706"/>
  <rect x="566" y="597" width="90" height="14" rx="7" fill="#f59e0b"/>
  <text x="360" y="725" fill="#111827" font-family="Arial, Helvetica, sans-serif" font-size="24" font-weight="800">EXPERIENCE</text>
  <rect x="360" y="758" width="365" height="22" rx="11" fill="#0f172a"/>
  <rect x="360" y="800" width="315" height="13" rx="6.5" fill="#94a3b8"/>
  <rect x="360" y="832" width="260" height="13" rx="6.5" fill="#cbd5e1"/>
  <rect x="360" y="895" width="365" height="22" rx="11" fill="#0f172a"/>
  <rect x="360" y="937" width="300" height="13" rx="6.5" fill="#94a3b8"/>
  <rect x="360" y="969" width="280" height="13" rx="6.5" fill="#cbd5e1"/>
  <circle cx="726" cy="414" r="84" fill="#ec4899" opacity="0.14"/>
  <circle cx="706" cy="986" r="58" fill="#06b6d4" opacity="0.18"/>
  <rect x="360" y="1045" width="140" height="36" rx="18" fill="#7c3aed"/>
  <rect x="520" y="1045" width="140" height="36" rx="18" fill="#06b6d4"/>
  <rect x="680" y="1045" width="45" height="36" rx="18" fill="#f59e0b"/>
</svg>
