<svg xmlns="http://www.w3.org/2000/svg" viewBox="0 0 1200 675" role="img" aria-labelledby="title desc">
  <title id="title">ATS CV article cover</title>
  <desc id="desc">A professional CV document being scanned with keyword signals and ranking indicators.</desc>
  <defs>
    <linearGradient id="bg" x1="0" y1="0" x2="1" y2="1">
      <stop offset="0" stop-color="#f8fafc"/>
      <stop offset="0.48" stop-color="#e0f2fe"/>
      <stop offset="1" stop-color="#d1fae5"/>
    </linearGradient>
    <filter id="shadow" x="-20%" y="-20%" width="140%" height="140%">
      <feDropShadow dx="0" dy="18" stdDeviation="20" flood-color="#0f172a" flood-opacity="0.16"/>
    </filter>
  </defs>
  <rect width="1200" height="675" fill="url(#bg)"/>
  <circle cx="1050" cy="110" r="120" fill="#f59e0b" opacity="0.18"/>
  <circle cx="140" cy="570" r="155" fill="#2563eb" opacity="0.12"/>
  <rect x="120" y="100" width="420" height="500" rx="8" fill="#ffffff" filter="url(#shadow)"/>
  <rect x="165" y="155" width="220" height="24" rx="12" fill="#0f172a"/>
  <rect x="165" y="205" width="315" height="16" rx="8" fill="#94a3b8"/>
  <rect x="165" y="242" width="260" height="16" rx="8" fill="#cbd5e1"/>
  <rect x="165" y="300" width="320" height="18" rx="9" fill="#10b981"/>
  <rect x="165" y="338" width="280" height="16" rx="8" fill="#cbd5e1"/>
  <rect x="165" y="374" width="300" height="16" rx="8" fill="#cbd5e1"/>
  <rect x="165" y="432" width="220" height="18" rx="9" fill="#2563eb"/>
  <rect x="165" y="470" width="315" height="16" rx="8" fill="#cbd5e1"/>
  <rect x="605" y="135" width="470" height="405" rx="8" fill="#0f172a" filter="url(#shadow)"/>
  <rect x="648" y="183" width="185" height="22" rx="11" fill="#ffffff"/>
  <rect x="648" y="237" width="334" height="18" rx="9" fill="#334155"/>
  <rect x="648" y="277" width="260" height="18" rx="9" fill="#334155"/>
  <rect x="648" y="342" width="350" height="28" rx="14" fill="#10b981"/>
  <rect x="648" y="392" width="235" height="18" rx="9" fill="#64748b"/>
  <rect x="648" y="430" width="305" height="18" rx="9" fill="#64748b"/>
  <circle cx="1000" cy="210" r="46" fill="#f59e0b"/>
  <path d="M978 210l15 15 31-36" fill="none" stroke="#ffffff" stroke-width="12" stroke-linecap="round" stroke-linejoin="round"/>
  <text x="650" y="505" fill="#ffffff" font-family="Arial, Helvetica, sans-serif" font-size="42" font-weight="800">ATS CV</text>
</svg>
