<svg xmlns="http://www.w3.org/2000/svg" viewBox="0 0 1200 675" role="img" aria-labelledby="title desc">
  <title id="title">Career planning article cover</title>
  <desc id="desc">A career roadmap with milestones, progress markers, and a destination flag.</desc>
  <defs>
    <linearGradient id="bg" x1="0" y1="0" x2="1" y2="1">
      <stop offset="0" stop-color="#f8fafc"/>
      <stop offset="0.45" stop-color="#fef3c7"/>
      <stop offset="1" stop-color="#dcfce7"/>
    </linearGradient>
    <filter id="shadow" x="-20%" y="-20%" width="140%" height="140%">
      <feDropShadow dx="0" dy="18" stdDeviation="20" flood-color="#0f172a" flood-opacity="0.15"/>
    </filter>
  </defs>
  <rect width="1200" height="675" fill="url(#bg)"/>
  <rect x="110" y="102" width="980" height="470" rx="8" fill="#ffffff" filter="url(#shadow)"/>
  <path d="M190 492 C315 346 412 438 526 320 S746 180 882 280 1000 210 1030 160" fill="none" stroke="#0f172a" stroke-width="18" stroke-linecap="round"/>
  <path d="M190 492 C315 346 412 438 526 320 S746 180 882 280 1000 210 1030 160" fill="none" stroke="#10b981" stroke-width="8" stroke-linecap="round"/>
  <circle cx="190" cy="492" r="28" fill="#2563eb"/>
  <circle cx="526" cy="320" r="28" fill="#f59e0b"/>
  <circle cx="882" cy="280" r="28" fill="#10b981"/>
  <path d="M1030 160v-72h96l-24 32 24 32z" fill="#ef4444"/>
  <rect x="185" y="155" width="250" height="28" rx="14" fill="#0f172a"/>
  <rect x="185" y="208" width="330" height="18" rx="9" fill="#94a3b8"/>
  <rect x="185" y="244" width="265" height="18" rx="9" fill="#cbd5e1"/>
  <text x="185" y="557" fill="#0f172a" font-family="Arial, Helvetica, sans-serif" font-size="44" font-weight="800">CAREER ROADMAP</text>
</svg>
