<svg xmlns="http://www.w3.org/2000/svg" viewBox="0 0 1200 675" role="img" aria-labelledby="title desc">
  <title id="title">Cover letter article cover</title>
  <desc id="desc">A cover letter document paired with a message envelope and approval mark.</desc>
  <defs>
    <linearGradient id="bg" x1="0" y1="0" x2="1" y2="1">
      <stop offset="0" stop-color="#fff7ed"/>
      <stop offset="0.5" stop-color="#f8fafc"/>
      <stop offset="1" stop-color="#dbeafe"/>
    </linearGradient>
    <filter id="shadow" x="-20%" y="-20%" width="140%" height="140%">
      <feDropShadow dx="0" dy="18" stdDeviation="20" flood-color="#0f172a" flood-opacity="0.15"/>
    </filter>
  </defs>
  <rect width="1200" height="675" fill="url(#bg)"/>
  <rect x="150" y="105" width="430" height="480" rx="8" fill="#ffffff" filter="url(#shadow)"/>
  <rect x="205" y="162" width="230" height="26" rx="13" fill="#0f172a"/>
  <rect x="205" y="226" width="300" height="15" rx="7.5" fill="#94a3b8"/>
  <rect x="205" y="262" width="250" height="15" rx="7.5" fill="#cbd5e1"/>
  <rect x="205" y="332" width="305" height="15" rx="7.5" fill="#cbd5e1"/>
  <rect x="205" y="368" width="280" height="15" rx="7.5" fill="#cbd5e1"/>
  <rect x="205" y="442" width="210" height="20" rx="10" fill="#10b981"/>
  <rect x="640" y="205" width="400" height="280" rx="8" fill="#0f172a" filter="url(#shadow)"/>
  <path d="M660 235l180 150 180-150" fill="none" stroke="#f8fafc" stroke-width="18" stroke-linecap="round" stroke-linejoin="round"/>
  <path d="M660 455l132-118" fill="none" stroke="#334155" stroke-width="14" stroke-linecap="round"/>
  <path d="M1020 455L888 337" fill="none" stroke="#334155" stroke-width="14" stroke-linecap="round"/>
  <circle cx="975" cy="198" r="52" fill="#10b981"/>
  <path d="M949 198l18 18 37-42" fill="none" stroke="#ffffff" stroke-width="12" stroke-linecap="round" stroke-linejoin="round"/>
  <text x="640" y="555" fill="#0f172a" font-family="Arial, Helvetica, sans-serif" font-size="44" font-weight="800">COVER LETTER</text>
</svg>
