<svg xmlns="http://www.w3.org/2000/svg" viewBox="0 0 1200 675" role="img" aria-labelledby="title desc">
  <title id="title">CV writing article cover</title>
  <desc id="desc">A polished CV layout with profile, experience blocks, and highlighted achievements.</desc>
  <defs>
    <linearGradient id="bg" x1="0" y1="0" x2="1" y2="1">
      <stop offset="0" stop-color="#f8fafc"/>
      <stop offset="0.45" stop-color="#d1fae5"/>
      <stop offset="1" stop-color="#e0e7ff"/>
    </linearGradient>
    <filter id="shadow" x="-20%" y="-20%" width="140%" height="140%">
      <feDropShadow dx="0" dy="18" stdDeviation="20" flood-color="#0f172a" flood-opacity="0.15"/>
    </filter>
  </defs>
  <rect width="1200" height="675" fill="url(#bg)"/>
  <rect x="180" y="92" width="385" height="492" rx="8" fill="#ffffff" filter="url(#shadow)"/>
  <circle cx="260" cy="172" r="44" fill="#0f172a"/>
  <rect x="330" y="145" width="165" height="22" rx="11" fill="#0f172a"/>
  <rect x="330" y="186" width="115" height="14" rx="7" fill="#94a3b8"/>
  <rect x="225" y="260" width="285" height="16" rx="8" fill="#10b981"/>
  <rect x="225" y="300" width="245" height="14" rx="7" fill="#cbd5e1"/>
  <rect x="225" y="335" width="270" height="14" rx="7" fill="#cbd5e1"/>
  <rect x="225" y="392" width="210" height="16" rx="8" fill="#2563eb"/>
  <rect x="225" y="432" width="285" height="14" rx="7" fill="#cbd5e1"/>
  <rect x="225" y="468" width="240" height="14" rx="7" fill="#cbd5e1"/>
  <rect x="635" y="140" width="375" height="360" rx="8" fill="#0f172a" filter="url(#shadow)"/>
  <path d="M740 380l80-165 80 165" fill="none" stroke="#f59e0b" stroke-width="22" stroke-linecap="round" stroke-linejoin="round"/>
  <path d="M777 310h86" stroke="#f8fafc" stroke-width="16" stroke-linecap="round"/>
  <rect x="690" y="430" width="260" height="18" rx="9" fill="#334155"/>
  <text x="635" y="570" fill="#0f172a" font-family="Arial, Helvetica, sans-serif" font-size="46" font-weight="800">CV WRITING</text>
</svg>
