<svg xmlns="http://www.w3.org/2000/svg" viewBox="0 0 1200 675" role="img" aria-labelledby="title desc">
  <title id="title">Career article cover</title>
  <desc id="desc">A clean professional desk scene with career documents, notes, and progress indicators.</desc>
  <defs>
    <linearGradient id="bg" x1="0" y1="0" x2="1" y2="1">
      <stop offset="0" stop-color="#f8fafc"/>
      <stop offset="0.5" stop-color="#dcfce7"/>
      <stop offset="1" stop-color="#dbeafe"/>
    </linearGradient>
    <filter id="shadow" x="-20%" y="-20%" width="140%" height="140%">
      <feDropShadow dx="0" dy="18" stdDeviation="20" flood-color="#0f172a" flood-opacity="0.15"/>
    </filter>
  </defs>
  <rect width="1200" height="675" fill="url(#bg)"/>
  <rect x="135" y="130" width="930" height="395" rx="8" fill="#ffffff" filter="url(#shadow)"/>
  <rect x="190" y="190" width="330" height="230" rx="8" fill="#0f172a"/>
  <rect x="230" y="235" width="180" height="20" rx="10" fill="#ffffff"/>
  <rect x="230" y="292" width="220" height="14" rx="7" fill="#64748b"/>
  <rect x="230" y="328" width="170" height="14" rx="7" fill="#64748b"/>
  <rect x="585" y="188" width="360" height="28" rx="14" fill="#0f172a"/>
  <rect x="585" y="260" width="295" height="18" rx="9" fill="#94a3b8"/>
  <rect x="585" y="306" width="340" height="18" rx="9" fill="#cbd5e1"/>
  <rect x="585" y="352" width="235" height="18" rx="9" fill="#10b981"/>
  <circle cx="935" cy="420" r="44" fill="#f59e0b"/>
  <path d="M913 420l15 15 30-36" fill="none" stroke="#ffffff" stroke-width="11" stroke-linecap="round" stroke-linejoin="round"/>
  <text x="190" y="585" fill="#0f172a" font-family="Arial, Helvetica, sans-serif" font-size="46" font-weight="800">CAREER GUIDE</text>
</svg>
