<svg xmlns="http://www.w3.org/2000/svg" viewBox="0 0 1200 675" role="img" aria-labelledby="title desc">
  <title id="title">Fresh graduate career article cover</title>
  <desc id="desc">A graduation cap, first CV document, and starter career pathway.</desc>
  <defs>
    <linearGradient id="bg" x1="0" y1="0" x2="1" y2="1">
      <stop offset="0" stop-color="#eff6ff"/>
      <stop offset="0.5" stop-color="#f8fafc"/>
      <stop offset="1" stop-color="#fef3c7"/>
    </linearGradient>
    <filter id="shadow" x="-20%" y="-20%" width="140%" height="140%">
      <feDropShadow dx="0" dy="18" stdDeviation="20" flood-color="#0f172a" flood-opacity="0.15"/>
    </filter>
  </defs>
  <rect width="1200" height="675" fill="url(#bg)"/>
  <rect x="160" y="132" width="420" height="420" rx="8" fill="#ffffff" filter="url(#shadow)"/>
  <path d="M250 210l220-82 220 82-220 82z" fill="#0f172a"/>
  <path d="M470 292v72" stroke="#f59e0b" stroke-width="14" stroke-linecap="round"/>
  <circle cx="470" cy="388" r="18" fill="#f59e0b"/>
  <rect x="230" y="390" width="250" height="20" rx="10" fill="#10b981"/>
  <rect x="230" y="438" width="300" height="15" rx="7.5" fill="#94a3b8"/>
  <rect x="230" y="474" width="245" height="15" rx="7.5" fill="#cbd5e1"/>
  <rect x="650" y="195" width="365" height="290" rx="8" fill="#0f172a" filter="url(#shadow)"/>
  <path d="M710 405h260" stroke="#334155" stroke-width="18" stroke-linecap="round"/>
  <path d="M730 390l66-70 62 42 82-100" fill="none" stroke="#10b981" stroke-width="18" stroke-linecap="round" stroke-linejoin="round"/>
  <circle cx="940" cy="262" r="34" fill="#f59e0b"/>
  <text x="650" y="565" fill="#0f172a" font-family="Arial, Helvetica, sans-serif" font-size="44" font-weight="800">FIRST CAREER</text>
</svg>
