<svg xmlns="http://www.w3.org/2000/svg" viewBox="0 0 1200 675" role="img" aria-labelledby="title desc">
  <title id="title">Job search article cover</title>
  <desc id="desc">A job search dashboard with filtered listings and a highlighted shortlist result.</desc>
  <defs>
    <linearGradient id="bg" x1="0" y1="0" x2="1" y2="1">
      <stop offset="0" stop-color="#f8fafc"/>
      <stop offset="0.48" stop-color="#e0f2fe"/>
      <stop offset="1" stop-color="#fef3c7"/>
    </linearGradient>
    <filter id="shadow" x="-20%" y="-20%" width="140%" height="140%">
      <feDropShadow dx="0" dy="18" stdDeviation="20" flood-color="#0f172a" flood-opacity="0.15"/>
    </filter>
  </defs>
  <rect width="1200" height="675" fill="url(#bg)"/>
  <rect x="130" y="130" width="940" height="410" rx="8" fill="#ffffff" filter="url(#shadow)"/>
  <rect x="200" y="195" width="430" height="58" rx="8" fill="#f1f5f9"/>
  <circle cx="235" cy="224" r="16" fill="none" stroke="#0f172a" stroke-width="9"/>
  <path d="M247 237l26 26" stroke="#0f172a" stroke-width="9" stroke-linecap="round"/>
  <rect x="320" y="214" width="230" height="17" rx="8.5" fill="#94a3b8"/>
  <rect x="200" y="315" width="760" height="64" rx="8" fill="#0f172a"/>
  <rect x="240" y="338" width="220" height="18" rx="9" fill="#ffffff"/>
  <rect x="515" y="338" width="170" height="18" rx="9" fill="#64748b"/>
  <circle cx="920" cy="347" r="28" fill="#10b981"/>
  <path d="M906 347l10 10 20-24" fill="none" stroke="#ffffff" stroke-width="8" stroke-linecap="round" stroke-linejoin="round"/>
  <rect x="200" y="410" width="610" height="44" rx="8" fill="#e2e8f0"/>
  <rect x="240" y="424" width="250" height="16" rx="8" fill="#94a3b8"/>
  <text x="200" y="602" fill="#0f172a" font-family="Arial, Helvetica, sans-serif" font-size="46" font-weight="800">JOB SEARCH</text>
</svg>
