<svg xmlns="http://www.w3.org/2000/svg" viewBox="0 0 1200 675" role="img" aria-labelledby="title desc">
  <title id="title">LinkedIn optimization article cover</title>
  <desc id="desc">A professional profile screen with visibility, connection, and search optimization signals.</desc>
  <defs>
    <linearGradient id="bg" x1="0" y1="0" x2="1" y2="1">
      <stop offset="0" stop-color="#eff6ff"/>
      <stop offset="0.52" stop-color="#f8fafc"/>
      <stop offset="1" stop-color="#d1fae5"/>
    </linearGradient>
    <filter id="shadow" x="-20%" y="-20%" width="140%" height="140%">
      <feDropShadow dx="0" dy="18" stdDeviation="20" flood-color="#0f172a" flood-opacity="0.15"/>
    </filter>
  </defs>
  <rect width="1200" height="675" fill="url(#bg)"/>
  <rect x="150" y="118" width="900" height="430" rx="8" fill="#ffffff" filter="url(#shadow)"/>
  <rect x="150" y="118" width="900" height="98" rx="8" fill="#0a66c2"/>
  <circle cx="260" cy="230" r="66" fill="#0f172a" stroke="#ffffff" stroke-width="12"/>
  <rect x="360" y="262" width="280" height="24" rx="12" fill="#0f172a"/>
  <rect x="360" y="310" width="215" height="16" rx="8" fill="#94a3b8"/>
  <rect x="220" y="390" width="315" height="18" rx="9" fill="#cbd5e1"/>
  <rect x="220" y="432" width="260" height="18" rx="9" fill="#cbd5e1"/>
  <rect x="690" y="278" width="245" height="185" rx="8" fill="#f1f5f9"/>
  <path d="M745 392c48-84 104-84 150 0" fill="none" stroke="#10b981" stroke-width="18" stroke-linecap="round"/>
  <circle cx="820" cy="330" r="42" fill="#2563eb"/>
  <text x="690" y="570" fill="#0f172a" font-family="Arial, Helvetica, sans-serif" font-size="46" font-weight="800">LINKEDIN SEO</text>
</svg>
