<svg xmlns="http://www.w3.org/2000/svg" viewBox="0 0 1200 675" role="img" aria-labelledby="title desc">
  <title id="title">Remote work article cover</title>
  <desc id="desc">A remote work setup with laptop, location pin, and online collaboration signals.</desc>
  <defs>
    <linearGradient id="bg" x1="0" y1="0" x2="1" y2="1">
      <stop offset="0" stop-color="#f8fafc"/>
      <stop offset="0.52" stop-color="#dcfce7"/>
      <stop offset="1" stop-color="#e0e7ff"/>
    </linearGradient>
    <filter id="shadow" x="-20%" y="-20%" width="140%" height="140%">
      <feDropShadow dx="0" dy="18" stdDeviation="20" flood-color="#0f172a" flood-opacity="0.15"/>
    </filter>
  </defs>
  <rect width="1200" height="675" fill="url(#bg)"/>
  <rect x="185" y="175" width="560" height="330" rx="8" fill="#0f172a" filter="url(#shadow)"/>
  <rect x="235" y="225" width="460" height="230" rx="8" fill="#f8fafc"/>
  <rect x="160" y="500" width="610" height="42" rx="8" fill="#334155"/>
  <circle cx="895" cy="300" r="92" fill="#2563eb" filter="url(#shadow)"/>
  <path d="M895 230c42 0 76 34 76 76 0 62-76 128-76 128s-76-66-76-128c0-42 34-76 76-76z" fill="#ffffff"/>
  <circle cx="895" cy="306" r="24" fill="#10b981"/>
  <rect x="300" y="278" width="175" height="20" rx="10" fill="#0f172a"/>
  <rect x="300" y="330" width="255" height="16" rx="8" fill="#94a3b8"/>
  <rect x="300" y="370" width="210" height="16" rx="8" fill="#cbd5e1"/>
  <text x="185" y="610" fill="#0f172a" font-family="Arial, Helvetica, sans-serif" font-size="46" font-weight="800">REMOTE WORK</text>
</svg>
